<svg xmlns="http://www.w3.org/2000/svg" xmlns:xlink="http://www.w3.org/1999/xlink" width="500" zoomAndPan="magnify" viewBox="0 0 375 374.999991" height="500" preserveAspectRatio="xMidYMid meet" version="1.0"><defs><g/><clipPath id="95fdc0fff9"><path d="M 149.292969 155.753906 L 227.292969 155.753906 L 227.292969 224.003906 L 149.292969 224.003906 Z M 149.292969 155.753906 " clip-rule="nonzero"/></clipPath></defs><g fill="#fffbf8" fill-opacity="1"><g transform="translate(93.585773, 166.158985)"><g><path d="M -7.984375 -9.375 C -8.066406 -9.394531 -8.128906 -9.441406 -8.171875 -9.515625 C -8.222656 -9.597656 -8.238281 -9.6875 -8.21875 -9.78125 L -7.890625 -11.140625 C -7.867188 -11.222656 -7.816406 -11.285156 -7.734375 -11.328125 C -7.660156 -11.378906 -7.582031 -11.394531 -7.5 -11.375 L 1.859375 -9.140625 C 1.941406 -9.117188 2.003906 -9.066406 2.046875 -8.984375 C 2.097656 -8.910156 2.113281 -8.832031 2.09375 -8.75 L 1.765625 -7.390625 C 1.742188 -7.296875 1.691406 -7.222656 1.609375 -7.171875 C 1.535156 -7.128906 1.457031 -7.117188 1.375 -7.140625 L -2.296875 -8.015625 L -3.25 -4.015625 L 0.421875 -3.140625 C 0.503906 -3.117188 0.566406 -3.070312 0.609375 -3 C 0.660156 -2.925781 0.675781 -2.84375 0.65625 -2.75 L 0.328125 -1.390625 C 0.304688 -1.296875 0.257812 -1.226562 0.1875 -1.1875 C 0.113281 -1.144531 0.0351562 -1.132812 -0.046875 -1.15625 L -9.40625 -3.390625 C -9.488281 -3.410156 -9.554688 -3.457031 -9.609375 -3.53125 C -9.660156 -3.601562 -9.675781 -3.6875 -9.65625 -3.78125 L -9.328125 -5.140625 C -9.304688 -5.234375 -9.253906 -5.300781 -9.171875 -5.34375 C -9.097656 -5.382812 -9.019531 -5.394531 -8.9375 -5.375 L -5.25 -4.5 L -4.296875 -8.5 Z M -7.984375 -9.375 "/></g></g></g><g fill="#fffbf8" fill-opacity="1"><g transform="translate(97.174501, 152.38546)"><g><path d="M 1.6875 -4.171875 C 1.65625 -4.085938 1.597656 -4.023438 1.515625 -3.984375 C 1.441406 -3.941406 1.359375 -3.941406 1.265625 -3.984375 L -0.03125 -4.5 C -0.113281 -4.539062 -0.171875 -4.601562 -0.203125 -4.6875 C -0.234375 -4.769531 -0.234375 -4.851562 -0.203125 -4.9375 L 0.328125 -6.234375 C 0.367188 -6.328125 0.425781 -6.390625 0.5 -6.421875 C 0.582031 -6.460938 0.664062 -6.460938 0.75 -6.421875 L 2.046875 -5.90625 C 2.140625 -5.863281 2.203125 -5.800781 2.234375 -5.71875 C 2.265625 -5.644531 2.257812 -5.5625 2.21875 -5.46875 Z M 1.6875 -4.171875 "/></g></g></g><g fill="#fffbf8" fill-opacity="1"><g transform="translate(102.795063, 139.31055)"><g><path d="M -2.5625 -12.375 C -2.488281 -12.332031 -2.441406 -12.265625 -2.421875 -12.171875 C -2.398438 -12.085938 -2.414062 -12.007812 -2.46875 -11.9375 L -5.328125 -7.109375 L -3.5625 -6.046875 L -0.953125 -10.4375 C -0.910156 -10.507812 -0.84375 -10.554688 -0.75 -10.578125 C -0.664062 -10.609375 -0.585938 -10.601562 -0.515625 -10.5625 L 0.6875 -9.84375 C 0.769531 -9.800781 0.820312 -9.734375 0.84375 -9.640625 C 0.875 -9.546875 0.867188 -9.460938 0.828125 -9.390625 L -1.78125 -5 L 1.453125 -3.078125 C 1.535156 -3.023438 1.585938 -2.957031 1.609375 -2.875 C 1.628906 -2.789062 1.613281 -2.707031 1.5625 -2.625 L 0.84375 -1.421875 C 0.800781 -1.347656 0.734375 -1.296875 0.640625 -1.265625 C 0.554688 -1.242188 0.472656 -1.257812 0.390625 -1.3125 L -7.875 -6.21875 C -7.945312 -6.269531 -7.992188 -6.335938 -8.015625 -6.421875 C -8.035156 -6.515625 -8.023438 -6.597656 -7.984375 -6.671875 L -4.234375 -12.984375 C -4.179688 -13.054688 -4.109375 -13.101562 -4.015625 -13.125 C -3.929688 -13.15625 -3.851562 -13.144531 -3.78125 -13.09375 Z M -2.5625 -12.375 "/></g></g></g><g fill="#fffbf8" fill-opacity="1"><g transform="translate(110.324988, 127.21516)"><g><path d="M 2.375 -2.890625 C 2.144531 -2.609375 1.875 -2.390625 1.5625 -2.234375 C 1.25 -2.078125 0.925781 -1.984375 0.59375 -1.953125 C 0.257812 -1.921875 -0.0703125 -1.953125 -0.40625 -2.046875 C -0.75 -2.140625 -1.0625 -2.304688 -1.34375 -2.546875 L -6.96875 -7.171875 C -7.039062 -7.222656 -7.082031 -7.289062 -7.09375 -7.375 C -7.101562 -7.46875 -7.082031 -7.550781 -7.03125 -7.625 L -6.140625 -8.703125 C -6.078125 -8.773438 -6 -8.8125 -5.90625 -8.8125 C -5.820312 -8.820312 -5.742188 -8.800781 -5.671875 -8.75 L -0.046875 -4.125 C 0.0859375 -4.007812 0.234375 -3.957031 0.390625 -3.96875 C 0.554688 -3.988281 0.691406 -4.0625 0.796875 -4.1875 L 2.65625 -6.453125 C 2.769531 -6.585938 2.816406 -6.734375 2.796875 -6.890625 C 2.773438 -7.046875 2.695312 -7.179688 2.5625 -7.296875 L -3.0625 -11.921875 C -3.132812 -11.972656 -3.175781 -12.046875 -3.1875 -12.140625 C -3.195312 -12.234375 -3.171875 -12.316406 -3.109375 -12.390625 L -2.21875 -13.46875 C -2.164062 -13.53125 -2.09375 -13.566406 -2 -13.578125 C -1.90625 -13.585938 -1.820312 -13.566406 -1.75 -13.515625 L 3.875 -8.890625 C 4.15625 -8.648438 4.375 -8.375 4.53125 -8.0625 C 4.695312 -7.75 4.796875 -7.425781 4.828125 -7.09375 C 4.859375 -6.757812 4.820312 -6.421875 4.71875 -6.078125 C 4.625 -5.742188 4.460938 -5.4375 4.234375 -5.15625 Z M 2.375 -2.890625 "/></g></g></g><g fill="#fffbf8" fill-opacity="1"><g transform="translate(119.589897, 116.391156)"><g><path d="M 6.625 -6.34375 C 6.71875 -6.3125 6.765625 -6.257812 6.765625 -6.1875 C 6.773438 -6.125 6.75 -6.0625 6.6875 -6 L 5.484375 -4.921875 C 5.421875 -4.867188 5.335938 -4.832031 5.234375 -4.8125 C 5.140625 -4.800781 5.046875 -4.816406 4.953125 -4.859375 L 1.140625 -6.53125 L -0.375 -5.171875 L 2.140625 -2.375 C 2.203125 -2.300781 2.226562 -2.21875 2.21875 -2.125 C 2.21875 -2.039062 2.179688 -1.96875 2.109375 -1.90625 L 1.0625 -0.953125 C 1 -0.890625 0.921875 -0.859375 0.828125 -0.859375 C 0.742188 -0.867188 0.671875 -0.910156 0.609375 -0.984375 L -5.8125 -8.125 C -5.875 -8.195312 -5.898438 -8.273438 -5.890625 -8.359375 C -5.890625 -8.453125 -5.859375 -8.53125 -5.796875 -8.59375 L -1.890625 -12.09375 C -1.617188 -12.34375 -1.316406 -12.519531 -0.984375 -12.625 C -0.648438 -12.738281 -0.316406 -12.785156 0.015625 -12.765625 C 0.359375 -12.742188 0.6875 -12.660156 1 -12.515625 C 1.3125 -12.378906 1.59375 -12.175781 1.84375 -11.90625 L 2.421875 -11.25 C 2.628906 -11.03125 2.785156 -10.785156 2.890625 -10.515625 C 3.003906 -10.253906 3.070312 -9.984375 3.09375 -9.703125 C 3.113281 -9.421875 3.09375 -9.140625 3.03125 -8.859375 C 2.96875 -8.585938 2.859375 -8.328125 2.703125 -8.078125 Z M 0.859375 -9.03125 C 0.984375 -9.15625 1.050781 -9.296875 1.0625 -9.453125 C 1.070312 -9.609375 1.019531 -9.75 0.90625 -9.875 L 0.328125 -10.53125 C 0.210938 -10.65625 0.0703125 -10.722656 -0.09375 -10.734375 C -0.257812 -10.742188 -0.40625 -10.6875 -0.53125 -10.5625 L -3.140625 -8.234375 L -1.75 -6.703125 Z M 0.859375 -9.03125 "/></g></g></g><g fill="#fffbf8" fill-opacity="1"><g transform="translate(130.378638, 107.08519)"><g><path d="M 7.53125 -5.28125 C 7.625 -5.25 7.671875 -5.195312 7.671875 -5.125 C 7.671875 -5.0625 7.632812 -5.007812 7.5625 -4.96875 L 6.125 -4.015625 C 6.050781 -3.972656 5.960938 -3.953125 5.859375 -3.953125 C 5.753906 -3.953125 5.660156 -3.96875 5.578125 -4 L 1.671875 -6 L 0.453125 -5.203125 L 2.515625 -2.0625 C 2.566406 -1.976562 2.582031 -1.890625 2.5625 -1.796875 C 2.539062 -1.703125 2.492188 -1.632812 2.421875 -1.59375 L 1.25 -0.828125 C 1.175781 -0.773438 1.097656 -0.757812 1.015625 -0.78125 C 0.929688 -0.800781 0.863281 -0.851562 0.8125 -0.9375 L -4.453125 -8.96875 C -4.503906 -9.039062 -4.523438 -9.117188 -4.515625 -9.203125 C -4.503906 -9.285156 -4.460938 -9.351562 -4.390625 -9.40625 L -3.21875 -10.171875 C -3.144531 -10.210938 -3.0625 -10.226562 -2.96875 -10.21875 C -2.875 -10.207031 -2.800781 -10.164062 -2.75 -10.09375 L -0.671875 -6.921875 L 0.546875 -7.71875 L 0.25 -12.109375 C 0.25 -12.210938 0.269531 -12.304688 0.3125 -12.390625 C 0.351562 -12.484375 0.410156 -12.550781 0.484375 -12.59375 L 1.921875 -13.546875 C 1.992188 -13.585938 2.0625 -13.597656 2.125 -13.578125 C 2.1875 -13.554688 2.210938 -13.492188 2.203125 -13.390625 L 2.578125 -7.84375 Z M 7.53125 -5.28125 "/></g></g></g><g fill="#fffbf8" fill-opacity="1"><g transform="translate(142.445329, 99.509379)"><g><path d="M 1.734375 -12.078125 C 1.816406 -12.117188 1.90625 -12.128906 2 -12.109375 C 2.101562 -12.097656 2.1875 -12.0625 2.25 -12 L 6.4375 -8.015625 C 6.5 -7.960938 6.566406 -7.882812 6.640625 -7.78125 C 6.722656 -7.675781 6.785156 -7.585938 6.828125 -7.515625 L 8.34375 -4.1875 C 8.382812 -4.101562 8.382812 -4.015625 8.34375 -3.921875 C 8.3125 -3.835938 8.257812 -3.78125 8.1875 -3.75 L 6.90625 -3.15625 C 6.820312 -3.125 6.738281 -3.125 6.65625 -3.15625 C 6.570312 -3.1875 6.507812 -3.242188 6.46875 -3.328125 L 5.75 -4.890625 L 2.015625 -3.171875 L 2.734375 -1.609375 C 2.773438 -1.523438 2.78125 -1.441406 2.75 -1.359375 C 2.71875 -1.273438 2.660156 -1.210938 2.578125 -1.171875 L 1.3125 -0.59375 C 1.21875 -0.5625 1.128906 -0.5625 1.046875 -0.59375 C 0.972656 -0.625 0.914062 -0.679688 0.875 -0.765625 L -0.640625 -4.09375 C -0.679688 -4.164062 -0.71875 -4.265625 -0.75 -4.390625 C -0.78125 -4.515625 -0.796875 -4.617188 -0.796875 -4.703125 L -1.09375 -10.46875 C -1.09375 -10.550781 -1.0625 -10.632812 -1 -10.71875 C -0.945312 -10.8125 -0.882812 -10.878906 -0.8125 -10.921875 Z M 1.234375 -5.0625 L 4.828125 -6.71875 L 1.609375 -9.765625 L 1.015625 -9.5 Z M 1.234375 -5.0625 "/></g></g></g><g fill="#fffbf8" fill-opacity="1"><g transform="translate(155.514955, 93.836381)"><g><path d="M 4.25 -11.546875 C 4.226562 -11.640625 4.238281 -11.722656 4.28125 -11.796875 C 4.320312 -11.878906 4.382812 -11.9375 4.46875 -11.96875 L 5.828125 -12.34375 C 5.898438 -12.375 5.976562 -12.363281 6.0625 -12.3125 C 6.15625 -12.269531 6.210938 -12.203125 6.234375 -12.109375 L 8.875 -2.875 C 8.90625 -2.789062 8.894531 -2.707031 8.84375 -2.625 C 8.789062 -2.550781 8.726562 -2.5 8.65625 -2.46875 L 7.296875 -2.09375 C 7.210938 -2.0625 7.128906 -2.066406 7.046875 -2.109375 C 6.972656 -2.160156 6.921875 -2.226562 6.890625 -2.3125 L 5.9375 -5.6875 L 0.96875 -8.09375 L 2.9375 -1.1875 C 2.96875 -1.101562 2.960938 -1.019531 2.921875 -0.9375 C 2.878906 -0.851562 2.8125 -0.800781 2.71875 -0.78125 L 1.375 -0.390625 C 1.289062 -0.367188 1.207031 -0.378906 1.125 -0.421875 C 1.050781 -0.472656 1 -0.539062 0.96875 -0.625 L -1.671875 -9.859375 C -1.691406 -9.953125 -1.679688 -10.035156 -1.640625 -10.109375 C -1.597656 -10.191406 -1.535156 -10.242188 -1.453125 -10.265625 L -0.109375 -10.65625 C -0.015625 -10.675781 0.0859375 -10.679688 0.203125 -10.671875 C 0.328125 -10.660156 0.425781 -10.632812 0.5 -10.59375 L 5.171875 -8.34375 Z M 4.25 -11.546875 "/></g></g></g><g fill="#fffbf8" fill-opacity="1"><g transform="translate(169.290246, 90.196761)"><g/></g></g><g fill="#fffbf8" fill-opacity="1"><g transform="translate(183.441727, 88.672101)"><g><path d="M 9.234375 -10.0625 C 9.316406 -10.050781 9.390625 -10.015625 9.453125 -9.953125 C 9.515625 -9.890625 9.546875 -9.8125 9.546875 -9.71875 L 9.484375 -7.421875 C 9.484375 -7.328125 9.460938 -7.222656 9.421875 -7.109375 C 9.378906 -7.003906 9.328125 -6.914062 9.265625 -6.84375 L 6.328125 -3.890625 L 6.234375 -0.171875 C 6.234375 -0.0859375 6.203125 -0.015625 6.140625 0.046875 C 6.078125 0.109375 6 0.140625 5.90625 0.140625 L 4.5 0.109375 C 4.414062 0.109375 4.335938 0.0703125 4.265625 0 C 4.203125 -0.0625 4.171875 -0.132812 4.171875 -0.21875 L 4.265625 -3.9375 L 1.5 -7.03125 C 1.4375 -7.101562 1.382812 -7.191406 1.34375 -7.296875 C 1.300781 -7.410156 1.28125 -7.515625 1.28125 -7.609375 L 1.34375 -9.90625 C 1.34375 -10 1.367188 -10.078125 1.421875 -10.140625 C 1.484375 -10.203125 1.5625 -10.234375 1.65625 -10.234375 L 3.0625 -10.203125 C 3.15625 -10.203125 3.234375 -10.164062 3.296875 -10.09375 C 3.359375 -10.03125 3.390625 -9.953125 3.390625 -9.859375 L 3.359375 -8.359375 C 3.347656 -8.273438 3.363281 -8.175781 3.40625 -8.0625 C 3.457031 -7.957031 3.515625 -7.875 3.578125 -7.8125 L 5.34375 -5.8125 L 7.21875 -7.71875 C 7.28125 -7.78125 7.332031 -7.863281 7.375 -7.96875 C 7.425781 -8.082031 7.457031 -8.179688 7.46875 -8.265625 L 7.5 -9.765625 C 7.5 -9.859375 7.53125 -9.9375 7.59375 -10 C 7.65625 -10.0625 7.734375 -10.09375 7.828125 -10.09375 Z M 9.234375 -10.0625 "/></g></g></g><g fill="#fffbf8" fill-opacity="1"><g transform="translate(197.661075, 89.290314)"><g><path d="M 8.296875 -8.96875 C 8.378906 -8.945312 8.457031 -8.898438 8.53125 -8.828125 C 8.601562 -8.753906 8.648438 -8.675781 8.671875 -8.59375 L 9.859375 -2.953125 C 9.878906 -2.859375 9.890625 -2.742188 9.890625 -2.609375 C 9.898438 -2.484375 9.894531 -2.378906 9.875 -2.296875 L 9.25 1.296875 C 9.226562 1.390625 9.175781 1.457031 9.09375 1.5 C 9.019531 1.550781 8.941406 1.570312 8.859375 1.5625 L 7.484375 1.3125 C 7.390625 1.300781 7.316406 1.257812 7.265625 1.1875 C 7.210938 1.113281 7.195312 1.03125 7.21875 0.9375 L 7.515625 -0.75 L 3.46875 -1.46875 L 3.171875 0.21875 C 3.148438 0.3125 3.101562 0.382812 3.03125 0.4375 C 2.957031 0.488281 2.875 0.503906 2.78125 0.484375 L 1.421875 0.25 C 1.328125 0.226562 1.253906 0.179688 1.203125 0.109375 C 1.148438 0.0351562 1.132812 -0.046875 1.15625 -0.140625 L 1.78125 -3.734375 C 1.800781 -3.816406 1.832031 -3.914062 1.875 -4.03125 C 1.925781 -4.15625 1.972656 -4.253906 2.015625 -4.328125 L 5.0625 -9.234375 C 5.101562 -9.304688 5.171875 -9.363281 5.265625 -9.40625 C 5.359375 -9.445312 5.445312 -9.460938 5.53125 -9.453125 Z M 3.890625 -3.46875 L 7.78125 -2.78125 L 6.875 -7.140625 L 6.21875 -7.25 Z M 3.890625 -3.46875 "/></g></g></g><g fill="#fffbf8" fill-opacity="1"><g transform="translate(211.639824, 92.045762)"><g><path d="M 11.8125 -6.84375 C 11.882812 -6.8125 11.945312 -6.757812 12 -6.6875 C 12.039062 -6.601562 12.046875 -6.519531 12.015625 -6.4375 L 8.953125 2.671875 C 8.921875 2.765625 8.863281 2.820312 8.78125 2.84375 C 8.6875 2.894531 8.601562 2.90625 8.53125 2.875 L 7.203125 2.4375 C 7.117188 2.40625 7.054688 2.34375 7.015625 2.25 C 6.984375 2.1875 6.984375 2.109375 7.015625 2.015625 L 9.0625 -4.03125 L 7.265625 -2.59375 C 7.179688 -2.53125 7.085938 -2.484375 6.984375 -2.453125 C 6.878906 -2.441406 6.78125 -2.445312 6.6875 -2.46875 L 6.078125 -2.6875 C 5.992188 -2.707031 5.910156 -2.765625 5.828125 -2.859375 C 5.753906 -2.941406 5.710938 -3.03125 5.703125 -3.125 L 5.140625 -5.359375 L 3.09375 0.703125 C 3.0625 0.796875 3.007812 0.851562 2.9375 0.875 C 2.851562 0.925781 2.765625 0.9375 2.671875 0.90625 L 1.359375 0.453125 C 1.273438 0.429688 1.21875 0.375 1.1875 0.28125 C 1.132812 0.21875 1.125 0.140625 1.15625 0.046875 L 4.21875 -9.0625 C 4.25 -9.144531 4.3125 -9.207031 4.40625 -9.25 C 4.476562 -9.28125 4.554688 -9.285156 4.640625 -9.265625 L 5.953125 -8.8125 L 6.0625 -8.78125 C 6.101562 -8.75 6.140625 -8.707031 6.171875 -8.65625 C 6.253906 -8.582031 6.304688 -8.492188 6.328125 -8.390625 L 7.078125 -4.65625 L 9.953125 -7.171875 C 10.035156 -7.234375 10.117188 -7.273438 10.203125 -7.296875 L 10.34375 -7.3125 C 10.394531 -7.3125 10.441406 -7.300781 10.484375 -7.28125 Z M 11.8125 -6.84375 "/></g></g></g><g fill="#fffbf8" fill-opacity="1"><g transform="translate(225.044473, 96.874126)"><g><path d="M 10.578125 -6.09375 C 10.660156 -6.050781 10.722656 -5.984375 10.765625 -5.890625 C 10.816406 -5.796875 10.84375 -5.707031 10.84375 -5.625 L 10.28125 0.125 C 10.28125 0.21875 10.257812 0.320312 10.21875 0.4375 C 10.1875 0.5625 10.148438 0.660156 10.109375 0.734375 L 8.4375 3.984375 C 8.394531 4.066406 8.328125 4.117188 8.234375 4.140625 C 8.148438 4.171875 8.070312 4.164062 8 4.125 L 6.75 3.484375 C 6.664062 3.441406 6.609375 3.375 6.578125 3.28125 C 6.554688 3.195312 6.566406 3.113281 6.609375 3.03125 L 7.390625 1.515625 L 3.734375 -0.359375 L 2.953125 1.15625 C 2.910156 1.238281 2.847656 1.289062 2.765625 1.3125 C 2.679688 1.34375 2.597656 1.335938 2.515625 1.296875 L 1.28125 0.65625 C 1.195312 0.613281 1.140625 0.550781 1.109375 0.46875 C 1.085938 0.382812 1.097656 0.300781 1.140625 0.21875 L 2.8125 -3.03125 C 2.851562 -3.101562 2.914062 -3.1875 3 -3.28125 C 3.082031 -3.382812 3.148438 -3.46875 3.203125 -3.53125 L 7.578125 -7.3125 C 7.640625 -7.375 7.722656 -7.410156 7.828125 -7.421875 C 7.929688 -7.429688 8.019531 -7.414062 8.09375 -7.375 Z M 4.75 -2.15625 L 8.265625 -0.34375 L 8.6875 -4.765625 L 8.09375 -5.0625 Z M 4.75 -2.15625 "/></g></g></g><g fill="#fffbf8" fill-opacity="1"><g transform="translate(237.569523, 103.665355)"><g><path d="M 11.71875 -3.78125 C 11.769531 -3.851562 11.835938 -3.894531 11.921875 -3.90625 C 12.015625 -3.925781 12.097656 -3.910156 12.171875 -3.859375 L 13.3125 -3.03125 C 13.382812 -2.976562 13.425781 -2.90625 13.4375 -2.8125 C 13.457031 -2.71875 13.441406 -2.632812 13.390625 -2.5625 L 7.734375 5.21875 C 7.679688 5.289062 7.609375 5.332031 7.515625 5.34375 C 7.429688 5.351562 7.351562 5.332031 7.28125 5.28125 L 6.140625 4.453125 C 6.066406 4.398438 6.019531 4.328125 6 4.234375 C 5.988281 4.148438 6.007812 4.070312 6.0625 4 L 8.125 1.171875 L 6.953125 -4.21875 L 2.734375 1.59375 C 2.679688 1.664062 2.613281 1.707031 2.53125 1.71875 C 2.445312 1.738281 2.363281 1.71875 2.28125 1.65625 L 1.15625 0.84375 C 1.082031 0.789062 1.035156 0.71875 1.015625 0.625 C 1.003906 0.539062 1.023438 0.460938 1.078125 0.390625 L 6.734375 -7.390625 C 6.785156 -7.460938 6.851562 -7.503906 6.9375 -7.515625 C 7.03125 -7.535156 7.113281 -7.519531 7.1875 -7.46875 L 8.3125 -6.65625 C 8.394531 -6.59375 8.46875 -6.507812 8.53125 -6.40625 C 8.59375 -6.3125 8.632812 -6.222656 8.65625 -6.140625 L 9.75 -1.078125 Z M 11.71875 -3.78125 "/></g></g></g><g fill="#fffbf8" fill-opacity="1"><g transform="translate(86.297564, 198.973466)"><g><path d="M 10.1875 0.46875 C 10.320312 0.445312 10.394531 0.503906 10.40625 0.640625 L 11.1875 7.5625 C 11.207031 7.707031 11.148438 7.789062 11.015625 7.8125 L 10.296875 7.890625 C 10.148438 7.910156 10.066406 7.847656 10.046875 7.703125 L 9.375 1.6875 L 5.984375 2.0625 L 6.59375 7.59375 C 6.601562 7.644531 6.585938 7.691406 6.546875 7.734375 C 6.503906 7.785156 6.460938 7.816406 6.421875 7.828125 L 5.703125 7.90625 C 5.640625 7.90625 5.582031 7.882812 5.53125 7.84375 C 5.488281 7.8125 5.460938 7.769531 5.453125 7.71875 L 4.84375 2.1875 L 0.515625 2.6875 C 0.378906 2.695312 0.300781 2.632812 0.28125 2.5 L 0.203125 1.796875 C 0.191406 1.660156 0.253906 1.585938 0.390625 1.578125 Z M 10.1875 0.46875 "/></g></g></g><g fill="#fffbf8" fill-opacity="1"><g transform="translate(88.435016, 214.436271)"><g><path d="M 2.46875 0.75 L 10.078125 -1.3125 C 10.140625 -1.320312 10.191406 -1.304688 10.234375 -1.265625 C 10.273438 -1.234375 10.300781 -1.191406 10.3125 -1.140625 L 10.5 -0.453125 C 10.539062 -0.328125 10.5 -0.25 10.375 -0.21875 L 2.765625 1.84375 C 2.484375 1.914062 2.269531 2.078125 2.125 2.328125 C 1.976562 2.578125 1.941406 2.84375 2.015625 3.125 L 2.890625 6.359375 C 2.960938 6.628906 3.125 6.835938 3.375 6.984375 C 3.625 7.128906 3.890625 7.164062 4.171875 7.09375 L 11.78125 5.03125 C 11.90625 5 11.988281 5.050781 12.03125 5.1875 L 12.21875 5.875 C 12.25 6.019531 12.203125 6.109375 12.078125 6.140625 L 4.46875 8.203125 C 4.175781 8.273438 3.882812 8.289062 3.59375 8.25 C 3.3125 8.21875 3.046875 8.125 2.796875 7.96875 C 2.554688 7.820312 2.347656 7.632812 2.171875 7.40625 C 1.992188 7.1875 1.867188 6.9375 1.796875 6.65625 L 0.921875 3.421875 C 0.847656 3.128906 0.832031 2.84375 0.875 2.5625 C 0.914062 2.28125 1 2.015625 1.125 1.765625 C 1.257812 1.523438 1.441406 1.3125 1.671875 1.125 C 1.910156 0.945312 2.175781 0.820312 2.46875 0.75 Z M 2.46875 0.75 "/></g></g></g><g fill="#fffbf8" fill-opacity="1"><g transform="translate(92.875826, 229.401113)"><g><path d="M 10.1875 -2.34375 L 10.46875 -1.6875 C 10.53125 -1.550781 10.5 -1.453125 10.375 -1.390625 L 2.21875 2.203125 L 4.578125 7.5625 C 4.597656 7.613281 4.59375 7.664062 4.5625 7.71875 C 4.539062 7.769531 4.503906 7.804688 4.453125 7.828125 L 3.796875 8.125 C 3.671875 8.175781 3.582031 8.140625 3.53125 8.015625 L 0.796875 1.796875 C 0.773438 1.765625 0.773438 1.71875 0.796875 1.65625 C 0.816406 1.59375 0.851562 1.550781 0.90625 1.53125 L 9.921875 -2.4375 C 9.984375 -2.46875 10.035156 -2.46875 10.078125 -2.4375 C 10.128906 -2.40625 10.164062 -2.375 10.1875 -2.34375 Z M 10.1875 -2.34375 "/></g></g></g><g fill="#fffbf8" fill-opacity="1"><g transform="translate(99.518801, 243.526908)"><g><path d="M 9.734375 -3.84375 L 10.109375 -3.234375 C 10.191406 -3.109375 10.175781 -3.007812 10.0625 -2.9375 L 2.53125 1.84375 L 5.65625 6.78125 C 5.6875 6.832031 5.691406 6.890625 5.671875 6.953125 C 5.660156 7.015625 5.632812 7.054688 5.59375 7.078125 L 4.984375 7.46875 C 4.867188 7.539062 4.769531 7.515625 4.6875 7.390625 L 1.0625 1.65625 C 1.03125 1.625 1.019531 1.578125 1.03125 1.515625 C 1.050781 1.453125 1.082031 1.40625 1.125 1.375 L 9.453125 -3.90625 C 9.503906 -3.9375 9.554688 -3.941406 9.609375 -3.921875 C 9.660156 -3.898438 9.703125 -3.875 9.734375 -3.84375 Z M 9.734375 -3.84375 "/></g></g></g><g fill="#fffbf8" fill-opacity="1"><g transform="translate(108.21252, 256.491734)"><g><path d="M 4.5625 -1.9375 L 5.09375 -2.421875 C 5.132812 -2.453125 5.179688 -2.46875 5.234375 -2.46875 C 5.296875 -2.46875 5.347656 -2.441406 5.390625 -2.390625 L 9.984375 2.875 C 10.015625 2.90625 10.023438 2.945312 10.015625 3 C 10.015625 3.0625 9.992188 3.109375 9.953125 3.140625 L 9.421875 3.625 C 9.304688 3.71875 9.207031 3.71875 9.125 3.625 L 4.53125 -1.640625 C 4.4375 -1.742188 4.445312 -1.84375 4.5625 -1.9375 Z M 4.5625 -1.9375 "/></g></g></g><g fill="#fffbf8" fill-opacity="1"><g transform="translate(118.758845, 268.000068)"><g><path d="M 2.453125 -0.796875 L 2.890625 -1.3125 C 2.921875 -1.351562 2.96875 -1.375 3.03125 -1.375 C 3.09375 -1.375 3.144531 -1.359375 3.1875 -1.328125 L 3.734375 -0.859375 C 3.773438 -0.828125 3.796875 -0.78125 3.796875 -0.71875 C 3.804688 -0.664062 3.796875 -0.617188 3.765625 -0.578125 L 3.328125 -0.0625 C 3.128906 0.164062 3.039062 0.421875 3.0625 0.703125 C 3.09375 0.992188 3.21875 1.234375 3.4375 1.421875 L 5.984375 3.578125 C 6.203125 3.765625 6.457031 3.847656 6.75 3.828125 C 7.039062 3.804688 7.285156 3.679688 7.484375 3.453125 L 8.328125 2.4375 C 8.523438 2.21875 8.609375 1.960938 8.578125 1.671875 C 8.546875 1.390625 8.421875 1.15625 8.203125 0.96875 L 5.65625 -1.1875 C 5.425781 -1.382812 5.25 -1.609375 5.125 -1.859375 C 5 -2.117188 4.921875 -2.390625 4.890625 -2.671875 C 4.867188 -2.960938 4.898438 -3.242188 4.984375 -3.515625 C 5.066406 -3.785156 5.203125 -4.039062 5.390625 -4.28125 L 6.25 -5.28125 C 6.445312 -5.519531 6.675781 -5.703125 6.9375 -5.828125 C 7.195312 -5.953125 7.46875 -6.019531 7.75 -6.03125 C 8.03125 -6.050781 8.304688 -6.019531 8.578125 -5.9375 C 8.859375 -5.863281 9.113281 -5.726562 9.34375 -5.53125 L 11.890625 -3.375 C 12.117188 -3.1875 12.296875 -2.960938 12.421875 -2.703125 C 12.546875 -2.441406 12.617188 -2.171875 12.640625 -1.890625 C 12.671875 -1.609375 12.644531 -1.328125 12.5625 -1.046875 C 12.476562 -0.773438 12.335938 -0.519531 12.140625 -0.28125 L 11.703125 0.234375 C 11.609375 0.335938 11.507812 0.34375 11.40625 0.25 L 10.84375 -0.21875 C 10.75 -0.3125 10.75 -0.410156 10.84375 -0.515625 L 11.28125 -1.03125 C 11.46875 -1.257812 11.546875 -1.515625 11.515625 -1.796875 C 11.492188 -2.085938 11.375 -2.328125 11.15625 -2.515625 L 8.609375 -4.671875 C 8.390625 -4.859375 8.132812 -4.941406 7.84375 -4.921875 C 7.550781 -4.898438 7.3125 -4.773438 7.125 -4.546875 L 6.265625 -3.546875 C 6.078125 -3.316406 5.992188 -3.054688 6.015625 -2.765625 C 6.046875 -2.472656 6.171875 -2.234375 6.390625 -2.046875 L 8.9375 0.109375 C 9.164062 0.296875 9.34375 0.515625 9.46875 0.765625 C 9.601562 1.023438 9.679688 1.296875 9.703125 1.578125 C 9.722656 1.859375 9.691406 2.140625 9.609375 2.421875 C 9.523438 2.703125 9.382812 2.957031 9.1875 3.1875 L 8.34375 4.203125 C 8.144531 4.429688 7.910156 4.609375 7.640625 4.734375 C 7.378906 4.867188 7.109375 4.941406 6.828125 4.953125 C 6.554688 4.972656 6.28125 4.941406 6 4.859375 C 5.726562 4.773438 5.476562 4.640625 5.25 4.453125 L 2.703125 2.296875 C 2.472656 2.097656 2.296875 1.867188 2.171875 1.609375 C 2.046875 1.359375 1.96875 1.09375 1.9375 0.8125 C 1.90625 0.53125 1.929688 0.25 2.015625 -0.03125 C 2.109375 -0.3125 2.253906 -0.566406 2.453125 -0.796875 Z M 2.453125 -0.796875 "/></g></g></g><g fill="#fffbf8" fill-opacity="1"><g transform="translate(130.917419, 277.789653)"><g><path d="M 4.078125 2.265625 L 8.75 -5.328125 L 6.140625 -6.9375 C 6.015625 -7.007812 5.988281 -7.109375 6.0625 -7.234375 L 6.453125 -7.84375 C 6.515625 -7.957031 6.609375 -7.976562 6.734375 -7.90625 L 12.921875 -4.09375 C 13.046875 -4.007812 13.078125 -3.910156 13.015625 -3.796875 L 12.625 -3.1875 C 12.550781 -3.0625 12.453125 -3.039062 12.328125 -3.125 L 9.71875 -4.734375 L 5.046875 2.859375 C 5.015625 2.898438 4.96875 2.925781 4.90625 2.9375 C 4.84375 2.957031 4.789062 2.953125 4.75 2.921875 L 4.140625 2.546875 C 4.023438 2.472656 4.003906 2.378906 4.078125 2.265625 Z M 4.078125 2.265625 "/></g></g></g><g fill="#fffbf8" fill-opacity="1"><g transform="translate(144.41113, 285.637398)"><g><path d="M 10.078125 -6.875 C 10.140625 -6.851562 10.191406 -6.8125 10.234375 -6.75 C 10.273438 -6.695312 10.296875 -6.644531 10.296875 -6.59375 L 10.15625 -0.96875 C 10.164062 -0.925781 10.160156 -0.863281 10.140625 -0.78125 C 10.128906 -0.695312 10.109375 -0.625 10.078125 -0.5625 L 8.421875 3.34375 C 8.367188 3.46875 8.273438 3.503906 8.140625 3.453125 L 7.5 3.171875 C 7.375 3.117188 7.335938 3.03125 7.390625 2.90625 L 8.484375 0.34375 L 3.46875 -1.78125 L 2.375 0.78125 C 2.320312 0.90625 2.234375 0.941406 2.109375 0.890625 L 1.453125 0.609375 C 1.316406 0.554688 1.273438 0.46875 1.328125 0.34375 L 2.984375 -3.5625 C 3.015625 -3.625 3.050781 -3.691406 3.09375 -3.765625 C 3.144531 -3.835938 3.1875 -3.882812 3.21875 -3.90625 L 7.171875 -7.90625 C 7.210938 -7.945312 7.265625 -7.972656 7.328125 -7.984375 C 7.398438 -7.992188 7.457031 -7.988281 7.5 -7.96875 Z M 8.90625 -0.671875 L 9.046875 -1 L 9.140625 -6.046875 L 7.59375 -6.703125 L 4.03125 -3.125 L 3.890625 -2.796875 Z M 8.90625 -0.671875 "/></g></g></g><g fill="#fffbf8" fill-opacity="1"><g transform="translate(158.932458, 291.364366)"><g><path d="M 10.625 -4.90625 C 10.59375 -4.78125 10.503906 -4.738281 10.359375 -4.78125 L 9.671875 -4.953125 C 9.535156 -4.992188 9.484375 -5.078125 9.515625 -5.203125 L 9.6875 -5.890625 C 9.75 -6.171875 9.703125 -6.429688 9.546875 -6.671875 C 9.398438 -6.910156 9.191406 -7.066406 8.921875 -7.140625 L 5.6875 -7.96875 C 5.40625 -8.039062 5.140625 -8 4.890625 -7.84375 C 4.648438 -7.695312 4.492188 -7.484375 4.421875 -7.203125 L 2.96875 -1.5 C 2.894531 -1.21875 2.929688 -0.953125 3.078125 -0.703125 C 3.222656 -0.460938 3.4375 -0.304688 3.71875 -0.234375 L 6.953125 0.59375 C 7.222656 0.664062 7.476562 0.628906 7.71875 0.484375 C 7.96875 0.347656 8.132812 0.140625 8.21875 -0.140625 L 8.390625 -0.828125 C 8.410156 -0.878906 8.441406 -0.921875 8.484375 -0.953125 C 8.535156 -0.984375 8.59375 -0.988281 8.65625 -0.96875 L 9.34375 -0.796875 C 9.40625 -0.773438 9.453125 -0.738281 9.484375 -0.6875 C 9.515625 -0.632812 9.519531 -0.582031 9.5 -0.53125 L 9.328125 0.15625 C 9.253906 0.445312 9.128906 0.703125 8.953125 0.921875 C 8.773438 1.148438 8.5625 1.332031 8.3125 1.46875 C 8.070312 1.601562 7.804688 1.691406 7.515625 1.734375 C 7.234375 1.785156 6.953125 1.773438 6.671875 1.703125 L 3.4375 0.875 C 3.144531 0.800781 2.882812 0.675781 2.65625 0.5 C 2.425781 0.332031 2.242188 0.128906 2.109375 -0.109375 C 1.972656 -0.347656 1.878906 -0.613281 1.828125 -0.90625 C 1.773438 -1.195312 1.789062 -1.488281 1.875 -1.78125 L 3.328125 -7.484375 C 3.398438 -7.773438 3.523438 -8.035156 3.703125 -8.265625 C 3.878906 -8.492188 4.085938 -8.675781 4.328125 -8.8125 C 4.566406 -8.957031 4.828125 -9.054688 5.109375 -9.109375 C 5.390625 -9.160156 5.675781 -9.148438 5.96875 -9.078125 L 9.203125 -8.25 C 9.484375 -8.175781 9.738281 -8.050781 9.96875 -7.875 C 10.207031 -7.695312 10.398438 -7.488281 10.546875 -7.25 C 10.691406 -7.007812 10.785156 -6.742188 10.828125 -6.453125 C 10.878906 -6.171875 10.867188 -5.882812 10.796875 -5.59375 Z M 10.625 -4.90625 "/></g></g></g><g fill="#fffbf8" fill-opacity="1"><g transform="translate(174.150411, 294.840138)"><g><path d="M 7.640625 0.578125 L 5.59375 -4.03125 L 3.03125 -4.296875 L 2.59375 0.046875 C 2.582031 0.179688 2.503906 0.242188 2.359375 0.234375 L 1.640625 0.15625 C 1.609375 0.15625 1.570312 0.128906 1.53125 0.078125 C 1.488281 0.0351562 1.46875 -0.0078125 1.46875 -0.0625 L 2.4375 -9.875 C 2.445312 -9.9375 2.476562 -9.984375 2.53125 -10.015625 C 2.582031 -10.046875 2.625 -10.0625 2.65625 -10.0625 L 3.375 -9.984375 C 3.519531 -9.972656 3.582031 -9.898438 3.5625 -9.765625 L 3.140625 -5.421875 L 5.703125 -5.15625 L 8.625 -9.296875 C 8.644531 -9.335938 8.6875 -9.367188 8.75 -9.390625 C 8.820312 -9.421875 8.890625 -9.4375 8.953125 -9.4375 L 9.8125 -9.34375 C 9.875 -9.34375 9.910156 -9.320312 9.921875 -9.28125 C 9.941406 -9.238281 9.9375 -9.203125 9.90625 -9.171875 L 6.640625 -4.5 L 8.921875 0.703125 C 8.984375 0.828125 8.941406 0.882812 8.796875 0.875 L 7.9375 0.78125 C 7.789062 0.769531 7.691406 0.703125 7.640625 0.578125 Z M 7.640625 0.578125 "/></g></g></g><g fill="#fffbf8" fill-opacity="1"><g transform="translate(189.718069, 295.986271)"><g/></g></g><g fill="#fffbf8" fill-opacity="1"><g transform="translate(205.265464, 294.77652)"><g><path d="M 6.0625 -11.53125 C 6.0625 -11.582031 6.078125 -11.628906 6.109375 -11.671875 C 6.140625 -11.722656 6.1875 -11.753906 6.25 -11.765625 L 6.9375 -11.90625 C 6.988281 -11.914062 7.039062 -11.90625 7.09375 -11.875 C 7.144531 -11.851562 7.175781 -11.816406 7.1875 -11.765625 L 8.40625 -1.953125 C 8.414062 -1.898438 8.398438 -1.847656 8.359375 -1.796875 C 8.328125 -1.742188 8.28125 -1.710938 8.21875 -1.703125 L 7.34375 -1.515625 C 7.207031 -1.484375 7.09375 -1.519531 7 -1.625 L 4.40625 -4.5 L 3.171875 -0.828125 C 3.117188 -0.703125 3.023438 -0.625 2.890625 -0.59375 L 2 -0.40625 C 1.9375 -0.394531 1.878906 -0.40625 1.828125 -0.4375 C 1.785156 -0.476562 1.757812 -0.523438 1.75 -0.578125 L -1 -10.078125 C -1.019531 -10.117188 -1.015625 -10.160156 -0.984375 -10.203125 C -0.960938 -10.253906 -0.921875 -10.285156 -0.859375 -10.296875 L -0.171875 -10.4375 C -0.117188 -10.445312 -0.0664062 -10.4375 -0.015625 -10.40625 C 0.0351562 -10.382812 0.0703125 -10.347656 0.09375 -10.296875 L 2.453125 -2.0625 L 3.5625 -5.53125 C 3.613281 -5.65625 3.703125 -5.734375 3.828125 -5.765625 L 4.421875 -5.875 C 4.554688 -5.90625 4.671875 -5.875 4.765625 -5.78125 L 7.15625 -3.03125 Z M 6.0625 -11.53125 "/></g></g></g><g fill="#fffbf8" fill-opacity="1"><g transform="translate(220.468628, 291.238282)"><g><path d="M 1.4375 -0.75 L -1.984375 -10 C -2.023438 -10.125 -1.984375 -10.207031 -1.859375 -10.25 L 4.671875 -12.671875 C 4.804688 -12.722656 4.894531 -12.6875 4.9375 -12.5625 L 5.1875 -11.890625 C 5.238281 -11.753906 5.195312 -11.660156 5.0625 -11.609375 L -0.625 -9.5 L 0.5625 -6.28125 L 5.5 -8.109375 C 5.539062 -8.128906 5.585938 -8.125 5.640625 -8.09375 C 5.703125 -8.070312 5.742188 -8.039062 5.765625 -8 L 6.015625 -7.328125 C 6.035156 -7.265625 6.03125 -7.207031 6 -7.15625 C 5.976562 -7.101562 5.945312 -7.066406 5.90625 -7.046875 L 0.96875 -5.21875 L 2.15625 -2 L 7.84375 -4.109375 C 7.90625 -4.128906 7.960938 -4.125 8.015625 -4.09375 C 8.066406 -4.070312 8.101562 -4.035156 8.125 -3.984375 L 8.359375 -3.3125 C 8.410156 -3.1875 8.367188 -3.097656 8.234375 -3.046875 L 1.703125 -0.625 C 1.578125 -0.582031 1.488281 -0.625 1.4375 -0.75 Z M 1.4375 -0.75 "/></g></g></g><g fill="#fffbf8" fill-opacity="1"><g transform="translate(234.952017, 285.458342)"><g><path d="M 1.09375 -0.828125 L -3.6875 -9.453125 C -3.71875 -9.515625 -3.71875 -9.570312 -3.6875 -9.625 C -3.664062 -9.675781 -3.632812 -9.71875 -3.59375 -9.75 L 1.0625 -12.328125 C 1.3125 -12.460938 1.578125 -12.546875 1.859375 -12.578125 C 2.148438 -12.609375 2.429688 -12.582031 2.703125 -12.5 C 2.984375 -12.425781 3.238281 -12.300781 3.46875 -12.125 C 3.695312 -11.945312 3.882812 -11.722656 4.03125 -11.453125 L 4.671875 -10.296875 C 4.910156 -9.859375 4.988281 -9.398438 4.90625 -8.921875 L 4.859375 -8.5625 L 5.1875 -8.40625 C 5.644531 -8.207031 5.992188 -7.894531 6.234375 -7.46875 L 6.875 -6.296875 C 7.019531 -6.035156 7.109375 -5.757812 7.140625 -5.46875 C 7.171875 -5.1875 7.144531 -4.910156 7.0625 -4.640625 C 6.976562 -4.367188 6.847656 -4.117188 6.671875 -3.890625 C 6.492188 -3.660156 6.28125 -3.476562 6.03125 -3.34375 L 1.375 -0.765625 C 1.332031 -0.734375 1.28125 -0.722656 1.21875 -0.734375 C 1.15625 -0.753906 1.113281 -0.785156 1.09375 -0.828125 Z M 1.640625 -2.203125 L 5.484375 -4.34375 C 5.722656 -4.476562 5.882812 -4.679688 5.96875 -4.953125 C 6.050781 -5.234375 6.019531 -5.5 5.875 -5.75 L 5.234375 -6.921875 C 5.085938 -7.171875 4.875 -7.332031 4.59375 -7.40625 C 4.320312 -7.488281 4.066406 -7.460938 3.828125 -7.328125 L -0.015625 -5.1875 Z M -0.578125 -6.1875 L 3.265625 -8.328125 C 3.503906 -8.460938 3.664062 -8.664062 3.75 -8.9375 C 3.832031 -9.21875 3.804688 -9.488281 3.671875 -9.75 L 3.03125 -10.90625 C 2.882812 -11.164062 2.671875 -11.332031 2.390625 -11.40625 C 2.109375 -11.488281 1.847656 -11.460938 1.609375 -11.328125 L -2.234375 -9.1875 Z M -0.578125 -6.1875 "/></g></g></g><g fill="#fffbf8" fill-opacity="1"><g transform="translate(248.401459, 277.56601)"><g/></g></g><g fill="#fffbf8" fill-opacity="1"><g transform="translate(260.512618, 267.742418)"><g><path d="M 0.796875 -1.125 L -6.328125 -7.9375 C -6.367188 -7.976562 -6.390625 -8.023438 -6.390625 -8.078125 C -6.390625 -8.140625 -6.367188 -8.191406 -6.328125 -8.234375 L -2.65625 -12.078125 C -2.457031 -12.285156 -2.222656 -12.445312 -1.953125 -12.5625 C -1.691406 -12.675781 -1.414062 -12.738281 -1.125 -12.75 C -0.84375 -12.757812 -0.566406 -12.710938 -0.296875 -12.609375 C -0.0234375 -12.503906 0.21875 -12.347656 0.4375 -12.140625 L 4.703125 -8.078125 C 4.921875 -7.867188 5.082031 -7.628906 5.1875 -7.359375 C 5.300781 -7.085938 5.359375 -6.8125 5.359375 -6.53125 C 5.359375 -6.25 5.304688 -5.972656 5.203125 -5.703125 C 5.109375 -5.429688 4.960938 -5.191406 4.765625 -4.984375 L 1.09375 -1.140625 C 1.050781 -1.097656 1 -1.078125 0.9375 -1.078125 C 0.875 -1.078125 0.828125 -1.09375 0.796875 -1.125 Z M 0.90625 -2.59375 L 3.9375 -5.765625 C 4.125 -5.960938 4.21875 -6.207031 4.21875 -6.5 C 4.21875 -6.789062 4.113281 -7.039062 3.90625 -7.25 L -0.359375 -11.3125 C -0.566406 -11.519531 -0.816406 -11.617188 -1.109375 -11.609375 C -1.398438 -11.597656 -1.640625 -11.492188 -1.828125 -11.296875 L -4.859375 -8.125 Z M 0.90625 -2.59375 "/></g></g></g><g fill="#fffbf8" fill-opacity="1"><g transform="translate(271.014972, 256.193874)"><g><path d="M 0.75 -1.421875 L -7.3125 -7.09375 C -7.425781 -7.175781 -7.441406 -7.273438 -7.359375 -7.390625 L -3.359375 -13.09375 C -3.273438 -13.207031 -3.175781 -13.222656 -3.0625 -13.140625 L -2.46875 -12.734375 C -2.351562 -12.648438 -2.335938 -12.550781 -2.421875 -12.4375 L -5.90625 -7.46875 L -3.109375 -5.5 L -0.078125 -9.8125 C -0.0546875 -9.84375 -0.015625 -9.863281 0.046875 -9.875 C 0.117188 -9.894531 0.171875 -9.890625 0.203125 -9.859375 L 0.796875 -9.453125 C 0.835938 -9.410156 0.863281 -9.359375 0.875 -9.296875 C 0.882812 -9.234375 0.878906 -9.1875 0.859375 -9.15625 L -2.171875 -4.84375 L 0.625 -2.875 L 4.109375 -7.84375 C 4.140625 -7.894531 4.1875 -7.921875 4.25 -7.921875 C 4.320312 -7.929688 4.378906 -7.921875 4.421875 -7.890625 L 5 -7.46875 C 5.113281 -7.394531 5.128906 -7.300781 5.046875 -7.1875 L 1.046875 -1.484375 C 0.960938 -1.367188 0.863281 -1.347656 0.75 -1.421875 Z M 0.75 -1.421875 "/></g></g></g><g fill="#fffbf8" fill-opacity="1"><g transform="translate(279.653287, 243.210949)"><g><path d="M 1.40625 -3.234375 L -4.1875 -3.703125 C -4.25 -3.703125 -4.316406 -3.710938 -4.390625 -3.734375 C -4.472656 -3.753906 -4.535156 -3.773438 -4.578125 -3.796875 L -8.40625 -5.703125 C -8.457031 -5.722656 -8.488281 -5.757812 -8.5 -5.8125 C -8.507812 -5.875 -8.503906 -5.925781 -8.484375 -5.96875 L -8.171875 -6.625 C -8.109375 -6.738281 -8.019531 -6.769531 -7.90625 -6.71875 L -4.28125 -4.90625 C -4.21875 -4.882812 -4.144531 -4.863281 -4.0625 -4.84375 C -3.988281 -4.820312 -3.925781 -4.8125 -3.875 -4.8125 L 0.9375 -4.421875 L 1.6875 -5.921875 L -1.515625 -9.53125 C -1.554688 -9.570312 -1.609375 -9.617188 -1.671875 -9.671875 C -1.734375 -9.722656 -1.796875 -9.757812 -1.859375 -9.78125 L -5.484375 -11.59375 C -5.597656 -11.644531 -5.625 -11.734375 -5.5625 -11.859375 L -5.25 -12.5 C -5.175781 -12.625 -5.082031 -12.660156 -4.96875 -12.609375 L -1.140625 -10.703125 C -1.097656 -10.679688 -1.046875 -10.644531 -0.984375 -10.59375 C -0.921875 -10.550781 -0.867188 -10.507812 -0.828125 -10.46875 L 2.90625 -6.28125 C 2.9375 -6.25 2.957031 -6.191406 2.96875 -6.109375 C 2.976562 -6.035156 2.96875 -5.972656 2.9375 -5.921875 L 1.703125 -3.421875 C 1.671875 -3.367188 1.625 -3.328125 1.5625 -3.296875 C 1.5 -3.265625 1.445312 -3.242188 1.40625 -3.234375 Z M 1.40625 -3.234375 "/></g></g></g><g fill="#fffbf8" fill-opacity="1"><g transform="translate(286.240937, 229.076597)"><g><path d="M 0.296875 -1.59375 L -9.09375 -4.609375 C -9.226562 -4.648438 -9.273438 -4.734375 -9.234375 -4.859375 L -7.09375 -11.5 C -7.050781 -11.632812 -6.960938 -11.679688 -6.828125 -11.640625 L -6.140625 -11.421875 C -6.003906 -11.367188 -5.957031 -11.273438 -6 -11.140625 L -7.859375 -5.375 L -4.609375 -4.328125 L -3 -9.34375 C -2.988281 -9.375 -2.953125 -9.40625 -2.890625 -9.4375 C -2.828125 -9.476562 -2.773438 -9.488281 -2.734375 -9.46875 L -2.046875 -9.25 C -1.992188 -9.238281 -1.953125 -9.203125 -1.921875 -9.140625 C -1.898438 -9.078125 -1.894531 -9.03125 -1.90625 -9 L -3.515625 -3.984375 L -0.265625 -2.9375 L 1.59375 -8.703125 C 1.601562 -8.765625 1.640625 -8.804688 1.703125 -8.828125 C 1.765625 -8.859375 1.820312 -8.863281 1.875 -8.84375 L 2.5625 -8.625 C 2.6875 -8.582031 2.726562 -8.492188 2.6875 -8.359375 L 0.546875 -1.71875 C 0.503906 -1.59375 0.421875 -1.550781 0.296875 -1.59375 Z M 0.296875 -1.59375 "/></g></g></g><g fill="#fffbf8" fill-opacity="1"><g transform="translate(290.631728, 214.114728)"><g><path d="M -9.828125 -3.5625 L -9.71875 -4.28125 C -9.695312 -4.425781 -9.617188 -4.488281 -9.484375 -4.46875 L -0.671875 -3.0625 L 0.265625 -8.828125 C 0.273438 -8.890625 0.304688 -8.9375 0.359375 -8.96875 C 0.410156 -9 0.460938 -9.007812 0.515625 -9 L 1.21875 -8.890625 C 1.351562 -8.867188 1.410156 -8.785156 1.390625 -8.640625 L 0.3125 -1.9375 C 0.300781 -1.894531 0.269531 -1.851562 0.21875 -1.8125 C 0.175781 -1.78125 0.128906 -1.769531 0.078125 -1.78125 L -9.65625 -3.34375 C -9.71875 -3.351562 -9.765625 -3.378906 -9.796875 -3.421875 C -9.828125 -3.472656 -9.835938 -3.519531 -9.828125 -3.5625 Z M -9.828125 -3.5625 "/></g></g></g><g fill="#fffbf8" fill-opacity="1"><g transform="translate(292.72, 198.645205)"><g><path d="M 0.03125 -3.546875 C 0.03125 -3.242188 -0.0234375 -2.960938 -0.140625 -2.703125 C -0.265625 -2.441406 -0.421875 -2.210938 -0.609375 -2.015625 C -0.804688 -1.816406 -1.039062 -1.660156 -1.3125 -1.546875 C -1.582031 -1.441406 -1.867188 -1.390625 -2.171875 -1.390625 L -8.0625 -1.4375 C -8.363281 -1.4375 -8.644531 -1.492188 -8.90625 -1.609375 C -9.175781 -1.734375 -9.410156 -1.894531 -9.609375 -2.09375 C -9.804688 -2.289062 -9.957031 -2.519531 -10.0625 -2.78125 C -10.175781 -3.039062 -10.234375 -3.320312 -10.234375 -3.625 L -10.203125 -6.96875 C -10.203125 -7.257812 -10.144531 -7.535156 -10.03125 -7.796875 C -9.914062 -8.066406 -9.753906 -8.300781 -9.546875 -8.5 C -9.347656 -8.707031 -9.113281 -8.863281 -8.84375 -8.96875 C -8.582031 -9.082031 -8.300781 -9.140625 -8 -9.140625 L -2.109375 -9.09375 C -1.804688 -9.09375 -1.519531 -9.03125 -1.25 -8.90625 C -0.976562 -8.789062 -0.75 -8.628906 -0.5625 -8.421875 C -0.375 -8.222656 -0.222656 -7.988281 -0.109375 -7.71875 C 0.00390625 -7.457031 0.0625 -7.179688 0.0625 -6.890625 Z M -9.09375 -3.625 C -9.09375 -3.332031 -8.992188 -3.082031 -8.796875 -2.875 C -8.597656 -2.664062 -8.351562 -2.5625 -8.0625 -2.5625 L -2.171875 -2.515625 C -1.878906 -2.515625 -1.628906 -2.613281 -1.421875 -2.8125 C -1.210938 -3.019531 -1.109375 -3.269531 -1.109375 -3.5625 L -1.078125 -6.90625 C -1.078125 -7.1875 -1.175781 -7.429688 -1.375 -7.640625 C -1.582031 -7.847656 -1.832031 -7.953125 -2.125 -7.953125 L -8.015625 -8 C -8.304688 -8 -8.550781 -7.894531 -8.75 -7.6875 C -8.957031 -7.488281 -9.0625 -7.25 -9.0625 -6.96875 Z M -9.09375 -3.625 "/></g></g></g><g fill="#fffbf8" fill-opacity="1"><g transform="translate(292.455738, 183.037583)"><g><path d="M -0.390625 -1.3125 L -10.140625 0.09375 C -10.203125 0.101562 -10.253906 0.0859375 -10.296875 0.046875 C -10.347656 0.00390625 -10.375 -0.0390625 -10.375 -0.09375 L -11.140625 -5.34375 C -11.179688 -5.632812 -11.164062 -5.921875 -11.09375 -6.203125 C -11.019531 -6.492188 -10.898438 -6.75 -10.734375 -6.96875 C -10.566406 -7.195312 -10.359375 -7.382812 -10.109375 -7.53125 C -9.859375 -7.6875 -9.585938 -7.785156 -9.296875 -7.828125 L -7.984375 -8.015625 C -7.679688 -8.066406 -7.390625 -8.050781 -7.109375 -7.96875 C -6.828125 -7.894531 -6.570312 -7.769531 -6.34375 -7.59375 C -6.125 -7.425781 -5.9375 -7.21875 -5.78125 -6.96875 C -5.632812 -6.71875 -5.539062 -6.445312 -5.5 -6.15625 L -4.875 -1.8125 L -0.5625 -2.4375 C -0.425781 -2.457031 -0.347656 -2.398438 -0.328125 -2.265625 L -0.21875 -1.5625 C -0.21875 -1.507812 -0.234375 -1.457031 -0.265625 -1.40625 C -0.296875 -1.351562 -0.335938 -1.320312 -0.390625 -1.3125 Z M -6 -1.65625 L -6.625 -6 C -6.664062 -6.28125 -6.800781 -6.507812 -7.03125 -6.6875 C -7.257812 -6.863281 -7.519531 -6.929688 -7.8125 -6.890625 L -9.125 -6.703125 C -9.40625 -6.660156 -9.632812 -6.519531 -9.8125 -6.28125 C -9.988281 -6.050781 -10.054688 -5.796875 -10.015625 -5.515625 L -9.390625 -1.171875 Z M -6 -1.65625 "/></g></g></g><g fill="#fffbf8" fill-opacity="1"><g transform="translate(289.839499, 167.645489)"><g><path d="M -0.65625 -1.484375 L -10.09375 1.375 C -10.226562 1.40625 -10.316406 1.359375 -10.359375 1.234375 L -12.375 -5.4375 C -12.414062 -5.570312 -12.367188 -5.65625 -12.234375 -5.6875 L -11.546875 -5.90625 C -11.410156 -5.945312 -11.320312 -5.898438 -11.28125 -5.765625 L -9.515625 0.03125 L -6.234375 -0.953125 L -7.765625 -5.984375 C -7.773438 -6.023438 -7.765625 -6.078125 -7.734375 -6.140625 C -7.710938 -6.203125 -7.679688 -6.238281 -7.640625 -6.25 L -6.953125 -6.453125 C -6.890625 -6.472656 -6.828125 -6.460938 -6.765625 -6.421875 C -6.710938 -6.390625 -6.679688 -6.351562 -6.671875 -6.3125 L -5.140625 -1.28125 L -1.875 -2.28125 L -3.640625 -8.078125 C -3.660156 -8.140625 -3.648438 -8.191406 -3.609375 -8.234375 C -3.578125 -8.285156 -3.535156 -8.320312 -3.484375 -8.34375 L -2.796875 -8.546875 C -2.671875 -8.585938 -2.585938 -8.539062 -2.546875 -8.40625 L -0.53125 -1.734375 C -0.488281 -1.609375 -0.53125 -1.523438 -0.65625 -1.484375 Z M -0.65625 -1.484375 "/></g></g></g><g fill="#fffbf8" fill-opacity="1"><g transform="translate(284.953237, 152.840524)"><g><path d="M -3.46875 -6.828125 L -6.578125 -3.171875 L -5.203125 -0.28125 L -1.265625 -2.15625 C -1.140625 -2.21875 -1.046875 -2.191406 -0.984375 -2.078125 L -0.6875 -1.4375 C -0.625 -1.300781 -0.65625 -1.203125 -0.78125 -1.140625 L -9.671875 3.09375 C -9.796875 3.15625 -9.890625 3.117188 -9.953125 2.984375 L -12.234375 -1.796875 C -12.359375 -2.054688 -12.425781 -2.332031 -12.4375 -2.625 C -12.445312 -2.914062 -12.40625 -3.195312 -12.3125 -3.46875 C -12.226562 -3.738281 -12.085938 -3.976562 -11.890625 -4.1875 C -11.703125 -4.40625 -11.472656 -4.578125 -11.203125 -4.703125 L -10 -5.28125 C -9.550781 -5.488281 -9.09375 -5.539062 -8.625 -5.4375 C -8.15625 -5.34375 -7.753906 -5.113281 -7.421875 -4.75 L -7.0625 -4.359375 L -4 -7.953125 C -3.96875 -7.992188 -3.925781 -8.007812 -3.875 -8 C -3.832031 -8 -3.800781 -7.96875 -3.78125 -7.90625 L -3.421875 -7.171875 C -3.398438 -7.117188 -3.390625 -7.054688 -3.390625 -6.984375 C -3.398438 -6.910156 -3.425781 -6.859375 -3.46875 -6.828125 Z M -6.21875 0.203125 L -8.109375 -3.765625 C -8.222656 -4.015625 -8.421875 -4.191406 -8.703125 -4.296875 C -8.984375 -4.398438 -9.253906 -4.390625 -9.515625 -4.265625 L -10.71875 -3.6875 C -10.976562 -3.5625 -11.148438 -3.359375 -11.234375 -3.078125 C -11.328125 -2.804688 -11.316406 -2.546875 -11.203125 -2.296875 L -9.3125 1.671875 Z M -6.21875 0.203125 "/></g></g></g><g fill="#fffbf8" fill-opacity="1"><g transform="translate(277.875701, 138.92256)"><g/></g></g><g clip-path="url(#95fdc0fff9)"><path fill="#fffbf8" d="M 152.945312 189.914062 L 170.617188 207.585938 L 168.785156 209.417969 L 149.292969 189.914062 L 168.792969 170.410156 L 170.625 172.242188 Z M 194.394531 155.777344 L 196.832031 156.390625 L 182.199219 224.039062 L 179.765625 223.425781 Z M 207.800781 170.410156 L 227.304688 189.914062 L 207.800781 209.417969 L 205.96875 207.585938 L 223.640625 189.914062 L 205.96875 172.242188 Z M 207.800781 170.410156 " fill-opacity="1" fill-rule="nonzero"/></g></svg>